# xmcd CD database file
#
# Track frame offsets:
#	150
#	26337
#	49892
#	68337
#	94087
#	123910
#	147465
#
# Disc length: 2430 seconds
#
# Revision: 1
# Processed by: cddbd v1.5.2PL0 Copyright (c) Steve Scherf et al.
# Submitted via: CDex 1.70beta3
#
DISCID=57097c07
DTITLE=Yamamoto Tsuyoshi -山本剛 - Life
DYEAR=1976
DGENRE=Jazz
TTITLE0=Green Dolphin Street
TTITLE1=When I Fall In Love
TTITLE2=Someday My Prince Will Come
TTITLE3=If You Could See Me Now
TTITLE4=Billysam Blues
TTITLE5=What Are You Doing The Rest Of Your Life
TTITLE6=Come Rain Or Come Shine
EXTD=YEAR: 1976
EXTT0=
EXTT1=
EXTT2=
EXTT3=
EXTT4=
EXTT5=
EXTT6=
PLAYORDER=
